#!OML:ASF H:\Terrain\Patient Classification 1\Animal1\Tuesday\Animal1.ASF
:FULLY-SPECIFIED
:DEGREES
1141
root 3.45516 15.7937 -11.3351 -353.696 -243.662 -5.25285
lowerback 1.70527 -4.19383 -5.70644
upperback -7.89565 -5.84957 -2.12772
thorax -8.95862 -2.39714 1.42267
lowerneck 3.48773 -1.60993 -12.9106
upperneck 23.3915 -3.63717 16.0541
head 6.93485 -1.20155 7.53867
rclavicle -2.28602e-014 -5.08889e-014
rhumerus 58.1733 -44.8802 -26.979
rradius 29.3256
rwrist -17.0244
rhand 22.4713 17.9931
rfingers 7.12502
rthumb 46.8299 -4.74771
lclavicle -2.28602e-014 -5.08889e-014
lhumerus 57.776 18.9809 28.6724
lradius 49.054
lwrist -33.9878
lhand 28.5227 32.747
lfingers 7.12502
lthumb 52.374 52.6278
rfemur -38.7148 -10.8819 32.2253
rtibia 44.413
rfoot -26.0339 -39.5047
rtoes 42.6211
lfemur -18.0681 16.7014 -12.9169
ltibia 52.6865
lfoot 6.4136 20.6017
ltoes 16.5818
1142
root 3.53996 15.7998 -11.3536 -354.11 -244.352 -5.44867
lowerback 1.85151 -4.28705 -5.81917
upperback -7.77896 -5.99486 -2.00127
thorax -8.88257 -2.46597 1.63691
lowerneck 3.56394 -1.79357 -13.2114
upperneck 23.0653 -3.99312 16.5644
head 6.87962 -1.38286 7.7468
rclavicle -5.33737e-014 -7.95139e-016
rhumerus 58.2853 -45.0746 -26.7404
rradius 29.6336
rwrist -17.6871
rhand 23.21 17.5719
rfingers 7.12502
rthumb 47.5128 -4.86501
lclavicle -5.33737e-014 -7.95139e-016
lhumerus 57.8708 19.5352 28.6864
lradius 49.2221
lwrist -33.8217
lhand 28.0619 33.0134
lfingers 7.12502
lthumb 51.9564 53.1449
rfemur -38.0162 -11.1101 32.2362
rtibia 44.2544
rfoot -25.158 -39.33
rtoes 40.9461
lfemur -19.0992 16.4813 -12.545
ltibia 55.0496
lfoot 8.79868 20.2719
ltoes 21.4485
1143
root 3.61074 15.7896 -11.3622 -354.035 -244.902 -5.66082
lowerback 1.70769 -4.60411 -6.04948
upperback -7.84556 -6.40825 -1.66929
thorax -8.78222 -2.64383 2.13228
lowerneck 3.40527 -1.88059 -13.6446
upperneck 23.0345 -4.16908 16.8432
head 6.93749 -1.49264 7.91832
rclavicle -4.27387e-015 -4.77083e-015
rhumerus 59.9317 -45.0803 -27.9514
rradius 29.5755
rwrist -17.3828
rhand 23.8038 18.2295
rfingers 7.12502
rthumb 48.0607 -3.95494
lclavicle -4.27387e-015 -4.77083e-015
lhumerus 57.6659 20.3563 28.6397
lradius 49.1975
lwrist -33.908
lhand 27.1308 33.104
lfingers 7.12502
lthumb 51.1099 53.7239
rfemur -38.0268 -10.9581 32.2903
rtibia 44.1478
rfoot -24.7494 -39.2221
rtoes 39.0735
lfemur -20.9794 16.351 -12.3388
ltibia 57.509
lfoot 10.3586 19.7833
ltoes 24.7573
1144
root 3.67158 15.7639 -11.3694 -352.343 -245.48 -4.03954
lowerback 1.71946 -4.69588 -5.38468
upperback -7.91717 -6.48592 -1.41006
thorax -8.89697 -2.71902 2.05465
lowerneck 3.36064 -2.16205 -13.3835
upperneck 23.1534 -4.61856 17.0561
head 7.05754 -1.66838 7.93396
rclavicle -1.08238e-013 -5.88403e-014
rhumerus 60.294 -45.2035 -28.0952
rradius 29.609
rwrist -17.4407
rhand 23.7394 18.3402
rfingers 7.12502
rthumb 48.0014 -3.87197
lclavicle -1.08238e-013 -5.88403e-014
lhumerus 58.0786 20.7269 28.9619
lradius 49.2459
lwrist -34.2396
lhand 26.6033 33.2508
lfingers 7.12502
lthumb 50.6289 54.1369
rfemur -37.9779 -10.677 33.1745
rtibia 44.0585
rfoot -26.2983 -38.3073
rtoes 39.6816
lfemur -22.974 16.556 -11.3082
ltibia 60.0479
lfoot 11.4837 18.5677
ltoes 26.9793
1145
root 3.73417 15.7385 -11.3817 -350.442 -246.016 -1.8018
lowerback 2.0646 -4.49249 -4.28029
upperback -7.86515 -6.18276 -1.49296
thorax -9.18107 -2.65203 1.37302
lowerneck 3.74484 -2.71573 -12.502
upperneck 22.9261 -5.49583 17.5009
head 7.0481 -1.99469 7.88299
rclavicle 6.82825e-014 3.10104e-014
rhumerus 59.0022 -45.6921 -27.0211
rradius 29.8564
rwrist -17.851
rhand 23.7981 18.1158
rfingers 7.12502
rthumb 48.0555 -4.07105
lclavicle 6.82825e-014 3.10104e-014
lhumerus 59.3968 20.5624 29.7894
lradius 49.3019
lwrist -34.6661
lhand 26.4436 33.3174
lfingers 7.12502
lthumb 50.4832 54.2827
rfemur -37.4612 -10.5093 34.217
rtibia 43.9707
rfoot -27.1974 -37.631
rtoes 40.4091
lfemur -24.5207 16.7203 -10.0059
ltibia 62.4581
lfoot 12.8099 15.5091
ltoes 23.0031
1146
root 3.79922 15.7181 -11.3958 -349.501 -246.516 -0.597538
lowerback 2.50864 -4.50393 -3.90481
upperback -7.91493 -6.19797 -1.27904
thorax -9.5118 -2.67208 1.43603
lowerneck 4.15846 -3.03483 -12.19
upperneck 22.7674 -6.00748 17.753
head 7.00554 -2.21491 7.8884
rclavicle 5.12864e-014 1.11319e-014
rhumerus 58.9955 -45.783 -26.9578
rradius 30.1607
rwrist -17.7555
rhand 24.2891 18.2433
rfingers 7.12502
rthumb 48.5077 -3.72914
lclavicle 5.12864e-014 1.11319e-014
lhumerus 60.042 20.7293 30.6787
lradius 49.1416
lwrist -35.1292
lhand 26.1027 33.0151
lfingers 7.12502
lthumb 50.1716 54.1473
rfemur -36.9544 -10.4317 34.772
rtibia 43.8668
rfoot -25.3483 -38.2506
rtoes 37.839
lfemur -25.9736 16.4625 -9.24307
ltibia 64.5576
lfoot 12.7592 12.1084
ltoes 18.6664
